# xmcd
# 
# Track frame offsets:
#     150
#     11082
#     41255
#     54337
#     79954
#     90145
#     116493
#     122056
#     133328
#     143295
#     156154
#     166661
#     180630
#     196282
#     212558
#     223030
# 
# Disc length: 3266
# 
# Revision: 11
# Processed by: cddbd v1.5.2PL0 Copyright (c) Steve Scherf et al.
# Submitted via: fre:ac v1.0.17
# 
DISCID=cd0cc010
DTITLE=Eric Clapton - Let it rock
DYEAR=1995
DGENRE=Blues
TTITLE0=Boom Boom (Out Goes the Light)
TTITLE1=Smokestack Lightning
TTITLE2=You Cant Judge a Book By Its Cover
TTITLE3=Take It Easy Baby
TTITLE4=Let It Rock
TTITLE5=I Wish You Would
TTITLE6=Choker
TTITLE7=Snake Drive
TTITLE8=Got To Hurry
TTITLE9=Freight Loader
TTITLE10=A Certain Girl
TTITLE11=Draggin' My Tail
TTITLE12=Louise (Louise Blues)
TTITLE13=Early in the Morning
TTITLE14=Pound And Stomps
TTITLE15=The First Time I Met the Blues
EXTD=
EXTT0=
EXTT1=
EXTT2=
EXTT3=
EXTT4=
EXTT5=
EXTT6=
EXTT7=
EXTT8=
EXTT9=
EXTT10=
EXTT11=
EXTT12=
EXTT13=
EXTT14=
EXTT15=
PLAYORDER=
